<?xml version="1.0" encoding="UTF-8" standalone="no"?>
<svg
   width="500"
   height="487.66507"
   viewBox="0 0 500 487.66507"
   fill="none"
   version="1.1"
   id="svg1"
   sodipodi:docname="github.svg"
   inkscape:version="1.4.2 (f4327f4, 2025-05-13)"
   xmlns:inkscape="http://www.inkscape.org/namespaces/inkscape"
   xmlns:sodipodi="http://sodipodi.sourceforge.net/DTD/sodipodi-0.dtd"
   xmlns="http://www.w3.org/2000/svg"
   xmlns:svg="http://www.w3.org/2000/svg">
  <defs
     id="defs1" />
  <sodipodi:namedview
     id="namedview1"
     pagecolor="#ffffff"
     bordercolor="#000000"
     borderopacity="0.25"
     inkscape:showpageshadow="2"
     inkscape:pageopacity="0.0"
     inkscape:pagecheckerboard="0"
     inkscape:deskcolor="#d1d1d1"
     showgrid="false"
     inkscape:zoom="1.1255704"
     inkscape:cx="490.86225"
     inkscape:cy="405.57216"
     inkscape:window-width="1920"
     inkscape:window-height="1017"
     inkscape:window-x="-8"
     inkscape:window-y="-8"
     inkscape:window-maximized="1"
     inkscape:current-layer="svg1" />
  <path
     fill-rule="evenodd"
     clip-rule="evenodd"
     d="M 250,0 C 111.875,0 0,111.875 0,250 c 0,110.625 71.5625,204.0625 170.9375,237.1875 12.5,2.1875 17.1875,-5.3125 17.1875,-11.875 0,-5.9375 -0.3125,-25.625 -0.3125,-46.5625 C 125,440.3125 108.75,413.4375 103.75,399.375 100.9375,392.1875 88.75,370 78.125,364.0625 c -8.75,-4.6875 -21.25,-16.25 -0.3125,-16.5625 19.6875,-0.3125 33.75,18.125 38.4375,25.625 22.5,37.8125 58.4375,27.1875 72.8125,20.625 C 191.25,377.5 197.8125,366.5625 205,360.3125 149.375,354.0625 91.25,332.5 91.25,236.875 c 0,-27.1875 9.6875,-49.6875 25.625,-67.1875 -2.5,-6.25 -11.25,-31.875 2.5,-66.25 0,0 20.9375,-6.5625 68.75,25.625 20,-5.625 41.25,-8.4375 62.5,-8.4375 21.25,0 42.5,2.8125 62.5,8.4375 47.8125,-32.5 68.75,-25.625 68.75,-25.625 13.75,34.375 5,60 2.5,66.25 15.9375,17.5 25.625,39.6875 25.625,67.1875 0,95.9375 -58.4375,117.1875 -114.0625,123.4375 9.0625,7.8125 16.875,22.8125 16.875,46.25 0,33.4375 -0.3125,60.3125 -0.3125,68.75 0,6.5625 4.6875,14.375 17.1875,11.875 C 428.4375,454.0625 500,360.3125 500,250 500,111.875 388.125,0 250,0 Z"
     fill="#1b1f23"
     id="path1"
     style="stroke-width:31.25" />
</svg>
