<?xml version="1.0" encoding="UTF-8" standalone="no"?>
<svg
   viewBox="0 0 500 183.59746"
   version="1.1"
   id="svg38"
   sodipodi:docname="GSAP.svg"
   width="500"
   height="183.59746"
   style="fill:none"
   inkscape:version="1.4.2 (f4327f4, 2025-05-13)"
   xmlns:inkscape="http://www.inkscape.org/namespaces/inkscape"
   xmlns:sodipodi="http://sodipodi.sourceforge.net/DTD/sodipodi-0.dtd"
   xmlns="http://www.w3.org/2000/svg"
   xmlns:svg="http://www.w3.org/2000/svg"
   xmlns:rdf="http://www.w3.org/1999/02/22-rdf-syntax-ns#"
   xmlns:cc="http://creativecommons.org/ns#"
   xmlns:dc="http://purl.org/dc/elements/1.1/">
  <metadata
     id="metadata44">
    <rdf:RDF>
      <cc:Work
         rdf:about="">
        <dc:format>image/svg+xml</dc:format>
        <dc:type
           rdf:resource="http://purl.org/dc/dcmitype/StillImage" />
        <dc:title>GSAP</dc:title>
      </cc:Work>
    </rdf:RDF>
  </metadata>
  <defs
     id="defs42" />
  <sodipodi:namedview
     pagecolor="#ffffff"
     bordercolor="#111111"
     borderopacity="1"
     objecttolerance="10"
     gridtolerance="10"
     guidetolerance="10"
     inkscape:pageopacity="0"
     inkscape:pageshadow="2"
     inkscape:window-width="1920"
     inkscape:window-height="1017"
     id="namedview40"
     showgrid="false"
     fit-margin-top="0"
     fit-margin-left="0"
     fit-margin-right="0"
     fit-margin-bottom="0"
     inkscape:zoom="1.0091463"
     inkscape:cx="459.29911"
     inkscape:cy="100.58006"
     inkscape:window-x="-8"
     inkscape:window-y="-8"
     inkscape:window-maximized="1"
     inkscape:current-layer="svg38"
     inkscape:showpageshadow="2"
     inkscape:pagecheckerboard="0"
     inkscape:deskcolor="#d1d1d1" />
  <title
     id="title30">GSAP</title>
  <path
     d="m 254.55786,52.93726 a 3.3537134,3.3537134 0 0 1 -3.35371,3.243555 h -34.55304 c -2.26437,0 -4.15542,-1.83597 -4.15542,-4.06974 0,-10.0795 -3.48835,-14.987675 -10.62418,-14.987675 -7.13582,0 -11.73799,4.38186 -11.87263,12.037875 -0.153,8.53728 4.67561,16.297335 18.42094,29.62651 18.09659,16.97664 25.34869,32.013275 24.99986,51.890755 -0.56916,32.1418 -22.42337,52.91891 -55.67899,52.91891 -16.98276,0 -29.95698,-4.54098 -38.58606,-13.50053 -8.7576,-9.10032 -12.77227,-22.45397 -11.93384,-39.68765 a 3.3537134,3.3537134 0 0 1 3.35984,-3.24356 h 35.7403 a 3.3659532,3.3659532 0 0 1 2.5826,1.27294 2.9375592,2.9375592 0 0 1 0.64871,2.35005 c -0.39779,6.21784 0.68543,10.86285 3.1334,13.43321 1.5667,1.66462 3.75151,2.50917 6.47487,2.50917 6.60339,0 10.47117,-4.66338 10.61805,-12.79062 0.1224,-7.02566 -2.09913,-13.1823 -14.20432,-25.63633 C 159.93786,93.028825 145.91713,77.245565 146.35165,52.42931 146.60868,38.03527 152.32468,24.871335 162.45314,15.360985 173.16299,5.312085 187.80795,0 204.80907,0 c 17.03173,0.122395 29.93863,4.98161 38.36575,14.443 7.98037,8.965675 11.81756,21.915415 11.39528,38.49426 z"
     style="opacity:1;fill:#00e559;fill-opacity:1;stroke-width:6.11992"
     id="path32"
     inkscape:connector-curvature="0" />
  <path
     d="M 361.65637,177.55097 361.88281,6.603385 A 3.2129553,3.2129553 0 0 0 358.64537,3.34147 h -53.47581 c -1.79926,0 -2.58873,1.54834 -3.1028,2.570365 L 224.6376,176.50447 v 0.0306 l -0.0306,0.0429 c -0.85679,2.09913 0.77111,4.34514 3.0416,4.34514 h 37.38044 c 2.01957,0 3.35983,-0.612 4.01466,-1.88494 l 7.42346,-17.83955 c 0.91186,-2.38065 1.08322,-2.60096 3.67807,-2.60096 h 35.71582 c 2.48468,0 2.53364,0.0489 2.49692,2.47856 l -0.8017,16.58497 a 3.2129553,3.2129553 0 0 0 3.23131,3.26192 h 37.766 a 3.2007155,3.2007155 0 0 0 2.46632,-1.11383 2.802921,2.802921 0 0 0 0.63647,-2.25825 z m -66.15628,-57.07432 a 10.220258,10.220258 0 0 1 -0.84455,-0.0306 0.8996275,0.8996275 0 0 1 -0.79558,-1.12607 c 0.0734,-0.2448 0.17747,-0.58139 0.33047,-0.99142 l 26.78075,-66.266445 a 18.298546,18.298546 0 0 1 0.83231,-1.915535 c 0.43451,-0.893505 0.96082,-0.954705 1.12606,-0.293755 0.14076,0.550795 -3.0722,68.041215 -3.0722,68.041215 -0.25091,2.52753 -0.36719,2.63156 -2.858,2.83964 l -21.47478,-0.2448 h -0.0489 l 0.0183,-0.0122 z"
     id="path34"
     style="fill:#00e559;fill-opacity:1;stroke-width:6.11992"
     inkscape:connector-curvature="0" />
  <path
     d="m 437.83707,3.34147 h -28.39028 c -1.49938,0 -3.18236,0.79559 -3.57403,2.582605 L 366.36259,177.46529 a 2.588724,2.588724 0 0 0 0.53855,2.22153 3.5067113,3.5067113 0 0 0 2.6744,1.23622 h 35.48327 c 1.90941,0 3.21295,-0.93634 3.56791,-2.55812 l 4.30842,-19.44297 c 0.30599,-1.51774 -0.22032,-2.69276 -1.57894,-3.40267 a 320.15111,320.15111 0 0 1 -1.90941,-0.99143 l -6.15052,-3.20071 -6.11991,-3.1946 -2.36841,-1.2301 a 1.1383042,1.1383042 0 0 1 -0.63035,-1.04039 1.2178631,1.2178631 0 0 1 1.22398,-1.18726 l 19.44297,0.0857 c 5.81392,0.0306 11.63396,-0.37944 17.35608,-1.43206 40.26904,-7.4357 67.01307,-39.68765 67.78418,-83.57356 0.66094,-37.4539 -20.24468,-56.43176 -62.11714,-56.43176 z m -9.66334,102.08018 h -0.75887 c -1.70746,0 -2.00733,-0.18359 -2.05629,-0.24479 -0.0306,-0.0429 11.21168,-49.406075 11.2178,-49.473395 0.28764,-1.42594 0.2754,-2.24601 -0.60587,-2.729485 -1.12607,-0.62423 -17.53968,-9.27779 -17.53968,-9.27779 a 1.1566639,1.1566639 0 0 1 -0.61811,-1.052625 1.2056233,1.2056233 0 0 1 1.20562,-1.175025 h 25.95456 c 8.07829,0.2448 12.58255,7.47242 12.36835,19.816285 -0.37331,21.364625 -10.53237,43.390205 -29.16751,44.142945 z"
     id="path36"
     style="fill:#00e559;fill-opacity:1;stroke-width:6.11992"
     inkscape:connector-curvature="0" />
  <g
     style="fill:#00e559;fill-opacity:1"
     id="g71"
     transform="matrix(6.119915,0,0,6.119915,0.00214436,0.416155)">
    <path
       id="path60"
       d="m 23.81,14.012 v 0.013 l -1.075,4.666 c -0.058,0.264 -0.322,0.457 -0.626,0.457 H 20.81 a 0.218,0.218 0 0 0 -0.208,0.156 c -1.198,4.064 -2.82,6.857 -4.962,8.534 -1.822,1.428 -4.068,2.094 -7.069,2.094 -2.696,0 -4.514,-0.867 -6.056,-2.579 -2.038,-2.262 -2.88,-5.966 -2.37,-10.428 0.92,-8.377 5.265,-16.83 13.631,-16.83 2.545,-0.022 4.543,0.763 5.933,2.33 1.47,1.658 2.216,4.154 2.22,7.422 a 0.55,0.55 0 0 1 -0.549,0.536 h -6.13 a 0.42,0.42 0 0 1 -0.407,-0.41 c -0.05,-2.26 -0.72,-3.36 -2.052,-3.36 -2.35,0 -3.736,3.19 -4.471,4.958 -1.027,2.47 -1.55,5.153 -1.447,7.825 0.049,1.244 0.249,2.993 1.43,3.718 1.047,0.642 2.541,0.216 3.446,-0.495 0.904,-0.712 1.632,-1.943 1.938,-3.066 0.043,-0.156 0.046,-0.277 0.005,-0.331 -0.043,-0.056 -0.162,-0.069 -0.253,-0.069 H 11.865 A 0.572,0.572 0 0 1 11.427,18.951 0.42,0.42 0 0 1 11.34,18.589 l 1.076,-4.674 c 0.053,-0.239 0.27,-0.42 0.537,-0.452 v -0.012 h 10.33 c 0.024,0 0.049,0 0.072,0.005 0.268,0.035 0.457,0.284 0.452,0.556 h 0.002 z"
       inkscape:connector-curvature="0"
       style="fill:#00e559;fill-opacity:1" />
  </g>
</svg>
